<svg width="156" height="156" viewBox="0 0 156 156" fill="none" xmlns="http://www.w3.org/2000/svg">
<circle cx="78" cy="78" r="78" fill="#D6D9DC"/>
<path d="M76.8112 102.546C92.6059 102.546 105.41 85.9815 105.41 65.5487C105.41 45.1159 92.6059 28.5518 76.8112 28.5518C61.0165 28.5518 48.2124 45.1159 48.2124 65.5487C48.2124 85.9815 61.0165 102.546 76.8112 102.546Z" fill="white"/>
<path d="M76.8111 105.156C52.8653 105.156 31.8701 112.419 19.5 123.541C33.005 140.223 53.6597 151.005 76.8111 151.005C99.9625 151.005 120.617 140.337 134.122 123.541C121.752 112.532 100.643 105.156 76.8111 105.156Z" fill="white"/>
<path d="M79.9888 124.222H73.6336C67.6187 124.222 62.7388 119.342 62.7388 113.327V88.4733C62.7388 82.4584 67.6187 77.5785 73.6336 77.5785H79.9888C86.0037 77.5785 90.8836 82.4584 90.8836 88.4733V113.327C90.8836 119.342 86.0037 124.222 79.9888 124.222Z" fill="white"/>
<path d="M52.0711 67.2512C53.7734 72.0177 53.0925 76.6707 50.5958 77.4651C48.0991 78.2595 44.8079 75.0818 43.1056 70.3154C41.4033 65.5489 42.0842 60.8959 44.581 60.1015C47.0777 59.1936 50.4823 62.3712 52.0711 67.2512Z" fill="white"/>
<path d="M110.348 70.3504C112.013 65.5543 111.347 60.9663 108.86 60.1029C106.373 59.2394 103.007 62.4275 101.342 67.2236C99.6766 72.0197 100.343 76.6077 102.83 77.4711C105.316 78.3346 108.682 75.1465 110.348 70.3504Z" fill="white"/>
<path d="M51.7303 67.024C47.9852 60.2148 44.2401 53.0651 44.3536 45.348C44.5806 37.6308 50.3684 29.4597 58.0856 29.8002C59.4474 29.8002 60.8093 30.1407 62.0576 29.9137C64.6678 29.5732 66.7106 27.3035 68.8669 25.7147C73.7468 22.0831 80.5561 21.2886 86.1169 23.5584C89.635 24.9202 92.5857 27.417 95.8768 29.0058C102.232 31.9565 109.949 31.7295 116.078 28.2114C114.829 30.5946 112.673 32.5239 110.176 33.4318C112.446 34.1127 115.056 34.1127 117.326 33.2048C115.964 35.7015 113.694 37.6308 111.084 38.6522C113.013 38.7657 114.943 38.8792 116.985 39.1062C115.283 41.4894 112.9 43.3052 110.176 44.3266C111.765 44.3266 113.24 44.4401 114.829 44.4401C113.694 47.8447 110.744 50.5684 107.226 51.3628C108.247 51.3628 109.155 51.3628 110.176 51.3628C106.885 56.0158 103.707 60.6688 100.416 65.4352C99.5084 66.7971 98.4871 68.1589 97.1252 69.0668C95.9903 69.7477 94.6285 70.0882 93.3801 70.4287C83.7337 72.5849 73.8603 73.2659 64.1004 72.358C60.6958 72.0175 57.2911 71.4501 54.5675 69.4073C51.9572 67.3645 50.4819 63.279 52.2977 60.5553" fill="white"/>
<path d="M58.3126 112.192C58.5395 108.334 58.9935 104.475 59.7879 100.616C61.7172 102.773 65.0083 103.113 67.8455 103.227C72.2715 103.454 76.6975 103.567 81.01 103.794C81.5775 106.745 81.9179 110.376 79.7617 112.419C78.7403 113.44 77.3784 113.894 76.0166 114.235C73.0659 115.029 70.0018 115.483 66.9376 115.483C63.306 115.483 58.88 114.462 57.7451 110.944C58.0856 110.603 58.5395 110.263 58.88 109.922" fill="white"/>
<path d="M95.1958 112.192C94.9688 108.334 94.5149 104.475 93.7205 100.616C91.7912 102.773 88.5001 103.113 85.6629 103.227C81.2369 103.454 76.8109 103.567 72.4983 103.794C71.9309 106.745 71.5904 110.376 73.7467 112.419C74.7681 113.44 76.1299 113.894 77.4918 114.235C80.4425 115.029 83.5066 115.483 86.5708 115.483C90.2024 115.483 94.6284 114.462 95.7633 110.944C95.4228 110.603 94.9688 110.263 94.6284 109.922" fill="white"/>
</svg>
