<svg width="33" height="33" viewBox="0 0 33 33" fill="none" xmlns="http://www.w3.org/2000/svg">
<path d="M11.3437 20.625C15.0458 20.625 18.0469 17.6239 18.0469 13.9219C18.0469 10.2198 15.0458 7.21875 11.3437 7.21875C7.64172 7.21875 4.64062 10.2198 4.64062 13.9219C4.64062 17.6239 7.64172 20.625 11.3437 20.625Z" stroke="black" stroke-width="2" stroke-miterlimit="10"/>
<path d="M20.0337 7.46845C20.9557 7.20869 21.9226 7.14951 22.8693 7.29491C23.8161 7.44031 24.7207 7.7869 25.5222 8.31134C26.3238 8.83579 27.0036 9.52591 27.516 10.3352C28.0283 11.1445 28.3613 12.0542 28.4925 13.0031C28.6236 13.9519 28.55 14.9178 28.2764 15.8358C28.0028 16.7538 27.5357 17.6024 26.9065 18.3247C26.2773 19.0469 25.5007 19.6259 24.6289 20.0227C23.7571 20.4195 22.8104 20.6249 21.8525 20.625" stroke="black" stroke-width="2" stroke-linecap="round" stroke-linejoin="round"/>
<path d="M2.06201 25.4457C3.1089 23.9565 4.49872 22.7412 6.11412 21.9021C7.72951 21.0631 9.52307 20.6251 11.3434 20.625C13.1637 20.6249 14.9573 21.0628 16.5727 21.9017C18.1882 22.7406 19.5781 23.9559 20.6251 25.445" stroke="black" stroke-width="2" stroke-linecap="round" stroke-linejoin="round"/>
<path d="M21.8525 20.625C23.673 20.6237 25.467 21.061 27.0826 21.9001C28.6982 22.7391 30.0878 23.955 31.1338 25.445" stroke="black" stroke-width="2" stroke-linecap="round" stroke-linejoin="round"/>
</svg>
